<svg width="126" height="40" viewBox="0 0 126 40" fill="none" xmlns="http://www.w3.org/2000/svg">
<path opacity="0.6" d="M21.9666 7.28687L29.3058 11.5242V19.9987L21.9666 24.236L14.6274 19.9987V11.5242L21.9666 7.28687Z" fill="white"/>
<path opacity="0.6" d="M21.9666 15.7614L29.3058 19.9986V28.4732L21.9666 32.7105L14.6274 28.4732V19.9986L21.9666 15.7614Z" fill="white"/>
<path opacity="0.6" d="M29.3055 11.5255L36.6447 15.7628V24.2374L29.3055 28.4747L21.9663 24.2374V15.7628L29.3055 11.5255Z" fill="white"/>
<path opacity="0.6" d="M14.6273 11.5255L21.9665 15.7628V24.2374L14.6273 28.4747L7.28809 24.2374V15.7628L14.6273 11.5255Z" fill="white"/>
<path d="M47.5477 20.0677C47.5477 19.4834 47.3674 19.0315 47.0068 18.712C46.6462 18.3924 46.1691 18.2327 45.5757 18.2327C45.0736 18.2327 44.6422 18.4061 44.2816 18.7531C43.9209 19.1 43.7406 19.5154 43.7406 19.9993C43.7406 20.2732 43.7771 20.5197 43.8502 20.7388C43.9232 20.9533 44.0214 21.1336 44.1446 21.2797C44.2724 21.4212 44.4231 21.5399 44.5965 21.6358C44.77 21.7271 44.9503 21.7933 45.1375 21.8344C45.3292 21.8754 45.5323 21.896 45.7469 21.896C46.2673 21.896 46.742 21.7682 47.1711 21.5125V22.0055C46.7283 22.2383 46.2513 22.3548 45.74 22.3548C45.4114 22.3548 45.1009 22.3114 44.8088 22.2247C44.5212 22.1334 44.2587 21.9987 44.0214 21.8207C43.784 21.6381 43.5945 21.3916 43.453 21.0811C43.3161 20.7662 43.2476 20.4055 43.2476 19.9993C43.2476 19.3693 43.469 18.8352 43.9118 18.397C44.3546 17.9588 44.9092 17.7396 45.5757 17.7396C46.3106 17.7396 46.9041 17.9473 47.356 18.3628C47.8125 18.7736 48.0407 19.3419 48.0407 20.0677V24.9294H47.5477V20.0677ZM49.0268 20.0677V24.9294H48.5338V20.0677C48.5338 19.205 48.2576 18.5202 47.7052 18.0135C47.1529 17.5023 46.443 17.2466 45.5757 17.2466C44.7723 17.2466 44.1012 17.5137 43.5626 18.0478C43.0239 18.5819 42.7546 19.2324 42.7546 19.9993C42.7546 20.4649 42.8345 20.8826 42.9943 21.2523C43.1586 21.6221 43.38 21.9188 43.6584 22.1425C43.9369 22.3662 44.2473 22.5373 44.5897 22.656C44.9366 22.7702 45.3018 22.8272 45.6853 22.8272C46.2057 22.8272 46.7009 22.7062 47.1711 22.4643V22.9847C46.6781 23.1901 46.1805 23.2928 45.6784 23.2928C45.2265 23.2928 44.7974 23.2244 44.3911 23.0874C43.9848 22.9459 43.6219 22.7428 43.3024 22.478C42.9828 22.2087 42.7295 21.8617 42.5423 21.4372C42.3552 21.0081 42.2616 20.5288 42.2616 19.9993C42.2616 19.1 42.5788 18.3354 43.2134 17.7054C43.8525 17.0709 44.6399 16.7536 45.5757 16.7536C46.233 16.7536 46.8219 16.8883 47.3423 17.1576C47.8627 17.4224 48.2736 17.8081 48.5748 18.3148C48.8761 18.8215 49.0268 19.4058 49.0268 20.0677ZM50.0128 20.0677V24.9294H49.5198V20.0677C49.5198 19.3145 49.3463 18.6481 48.9994 18.0683C48.657 17.484 48.1868 17.0367 47.5888 16.7262C46.9908 16.4158 46.3198 16.2606 45.5757 16.2606C44.8681 16.2606 44.2222 16.4295 43.6379 16.7673C43.0536 17.1006 42.5948 17.5525 42.2616 18.1231C41.9329 18.6937 41.7686 19.3191 41.7686 19.9993C41.7686 20.5836 41.8759 21.1177 42.0904 21.6015C42.305 22.0809 42.5925 22.4757 42.9532 22.7861C43.3184 23.0965 43.7315 23.3385 44.1925 23.512C44.6582 23.6809 45.1443 23.7653 45.651 23.7653C46.1669 23.7653 46.6736 23.658 47.1711 23.4435V23.9433C46.6507 24.1396 46.1395 24.2378 45.6373 24.2378C44.8476 24.2378 44.1218 24.0597 43.4599 23.7037C42.798 23.3476 42.2684 22.8432 41.8713 22.1904C41.4741 21.5376 41.2756 20.8073 41.2756 19.9993C41.2756 19.4241 41.3851 18.8763 41.6042 18.3559C41.8279 17.8355 42.1292 17.3859 42.5081 17.007C42.887 16.6281 43.3435 16.3268 43.8776 16.1031C44.4117 15.8794 44.9777 15.7676 45.5757 15.7676C46.4111 15.7676 47.1643 15.9456 47.8353 16.3017C48.5109 16.6578 49.0427 17.1645 49.4308 17.8218C49.8188 18.4792 50.0128 19.2278 50.0128 20.0677ZM50.9988 20.0677V24.9294H50.5058V20.0677C50.5058 19.1365 50.289 18.3057 49.8553 17.5753C49.4216 16.8404 48.8305 16.2743 48.0818 15.8772C47.3332 15.4755 46.4978 15.2746 45.5757 15.2746C44.6901 15.2746 43.8798 15.4869 43.1449 15.9114C42.4099 16.3359 41.8325 16.9111 41.4125 17.6369C40.9925 18.3582 40.7826 19.1456 40.7826 19.9993C40.7826 20.5607 40.8716 21.0948 41.0496 21.6015C41.2322 22.1037 41.4787 22.5442 41.7891 22.9231C42.1041 23.2974 42.4647 23.6215 42.871 23.8954C43.2818 24.1693 43.7224 24.377 44.1925 24.5185C44.6673 24.66 45.1489 24.7308 45.6373 24.7308C46.176 24.7308 46.6873 24.6281 47.1711 24.4227V24.9294C46.6644 25.1074 46.144 25.1964 45.6099 25.1964C45.0576 25.1964 44.5189 25.1188 43.994 24.9636C43.4736 24.8084 42.9897 24.5801 42.5423 24.2789C42.0995 23.973 41.7092 23.6147 41.3714 23.2038C41.0336 22.7884 40.7689 22.3045 40.5771 21.7522C40.3854 21.1998 40.2896 20.6155 40.2896 19.9993C40.2896 19.2917 40.4219 18.6184 40.6867 17.9793C40.956 17.3357 41.3212 16.781 41.7823 16.3154C42.2479 15.8452 42.8094 15.4732 43.4667 15.1993C44.1286 14.9208 44.8316 14.7816 45.5757 14.7816C46.3335 14.7816 47.0456 14.9094 47.7121 15.165C48.3785 15.4207 48.9537 15.7767 49.4376 16.2332C49.9215 16.6852 50.3026 17.2421 50.5811 17.904C50.8596 18.5659 50.9988 19.2871 50.9988 20.0677Z" fill="white"/>
<path d="M55.9426 20.2184H58.9143C59.3069 20.2184 59.6401 20.0951 59.914 19.8486C60.1879 19.6021 60.3249 19.2552 60.3249 18.8078C60.3249 18.4792 60.1811 18.1847 59.8935 17.9245C59.6105 17.6643 59.2841 17.5342 58.9143 17.5342H54.6827V24.9294H54.1897V17.0412H58.9143C59.421 17.0412 59.8638 17.2192 60.2427 17.5753C60.6262 17.9314 60.8179 18.3422 60.8179 18.8078C60.8179 19.3876 60.633 19.8509 60.2632 20.1978C59.8935 20.5402 59.4438 20.7114 58.9143 20.7114H55.9426V20.2184ZM55.9426 21.2044H58.9143C59.5717 21.2044 60.1354 20.9807 60.6056 20.5334C61.0758 20.086 61.3109 19.5108 61.3109 18.8078C61.3109 18.2098 61.0712 17.6849 60.5919 17.2329C60.1126 16.7765 59.5534 16.5482 58.9143 16.5482H53.6966V24.9294H53.2036V16.0552H58.9143C59.6904 16.0552 60.366 16.3314 60.9411 16.8837C61.5163 17.4315 61.8039 18.0729 61.8039 18.8078C61.8039 19.6295 61.5186 20.3165 60.948 20.8689C60.3819 21.4212 59.704 21.6974 58.9143 21.6974H55.9426V21.2044ZM55.9426 22.1904H58.9143C59.5215 22.1904 60.0829 22.0443 60.5988 21.7522C61.1146 21.46 61.5254 21.0538 61.8313 20.5334C62.1417 20.013 62.2969 19.4378 62.2969 18.8078C62.2969 18.2372 62.144 17.7031 61.8381 17.2056C61.5323 16.7034 61.1169 16.304 60.5919 16.0073C60.0715 15.7105 59.5123 15.5622 58.9143 15.5622H52.7106V24.9294H52.2176V15.0692H58.9143C59.4302 15.0692 59.9254 15.1719 60.4002 15.3773C60.8795 15.5782 61.2926 15.8475 61.6396 16.1853C61.9865 16.5185 62.265 16.9157 62.4749 17.3767C62.6849 17.8378 62.7899 18.3148 62.7899 18.8078C62.7899 19.6067 62.6073 20.3051 62.2421 20.9031C61.8769 21.4966 61.3862 21.9485 60.77 22.2589L61.8039 24.9294H61.2767L60.2975 22.4575C60.1742 22.4985 60.0304 22.5396 59.8661 22.5807L60.7905 24.9294H60.2632L59.3594 22.6629C59.2179 22.6766 59.0695 22.6834 58.9143 22.6834L59.7839 24.9294H59.2635L58.4008 22.6834H57.9557L58.7842 24.9294H58.2638L57.4284 22.6834H55.9426V22.1904ZM55.6687 24.9294H55.1757V18.0272H58.9143C59.17 18.0272 59.3868 18.1048 59.5648 18.26C59.7429 18.4107 59.8319 18.5933 59.8319 18.8078C59.8319 19.4195 59.526 19.7254 58.9143 19.7254H55.9426V19.2324H58.9143C59.1973 19.2324 59.3389 19.0909 59.3389 18.8078C59.3389 18.7302 59.2955 18.664 59.2088 18.6093C59.1266 18.5499 59.0284 18.5202 58.9143 18.5202H55.6687V24.9294Z" fill="white"/>
<path d="M65.6316 17.8013H66.1246V24.9294H65.6316V17.8013ZM63.6595 15.5622V15.0692H71.0547V15.5622H63.6595ZM63.6595 16.5482V16.0552H71.0547V16.5482H63.6595ZM63.6595 17.5342V17.0412H71.0547V17.5342H63.6595ZM68.5896 17.8013H69.0826V24.9294H68.5896V17.8013ZM67.6036 17.8013H68.0966V24.9294H67.6036V17.8013ZM66.6176 17.8013H67.1106V24.9294H66.6176V17.8013Z" fill="white"/>
<path d="M75.1014 15.0692H75.5944V24.9294H75.1014V15.0692ZM74.1154 15.0692H74.6084V24.9294H74.1154V15.0692ZM73.1294 15.0692H73.6224V24.9294H73.1294V15.0692ZM72.1434 15.0692H72.6364V24.9294H72.1434V15.0692Z" fill="white"/>
<path d="M80.3328 24.9294H79.8398V15.0692H84.5439V15.5622H80.3328V16.0552H84.5439V16.5482H80.3328V17.0412H84.5439V17.5342H80.3328V19.0406H84.2153V19.5336H80.3328V20.0267H84.2153V20.5197H80.3328V21.0127H84.2153V21.5057H80.3328V24.9294ZM79.3468 24.9294H78.8538V15.0692H79.3468V24.9294ZM78.3608 24.9294H77.8678V15.0692H78.3608V24.9294ZM77.3748 24.9294H76.8817V15.0692H77.3748V24.9294Z" fill="white"/>
<path d="M92.658 20.0677C92.658 19.4834 92.4777 19.0315 92.1171 18.712C91.7565 18.3924 91.2794 18.2327 90.686 18.2327C90.1839 18.2327 89.7525 18.4061 89.3918 18.7531C89.0312 19.1 88.8509 19.5154 88.8509 19.9993C88.8509 20.2732 88.8874 20.5197 88.9605 20.7388C89.0335 20.9533 89.1316 21.1336 89.2549 21.2797C89.3827 21.4212 89.5334 21.5399 89.7068 21.6358C89.8803 21.7271 90.0606 21.7933 90.2478 21.8344C90.4395 21.8754 90.6426 21.896 90.8572 21.896C91.3776 21.896 91.8523 21.7682 92.2814 21.5125V22.0055C91.8386 22.2383 91.3616 22.3548 90.8503 22.3548C90.5217 22.3548 90.2112 22.3114 89.9191 22.2247C89.6315 22.1334 89.369 21.9987 89.1316 21.8207C88.8943 21.6381 88.7048 21.3916 88.5633 21.0811C88.4264 20.7662 88.3579 20.4055 88.3579 19.9993C88.3579 19.3693 88.5793 18.8352 89.0221 18.397C89.4649 17.9588 90.0195 17.7396 90.686 17.7396C91.4209 17.7396 92.0144 17.9473 92.4663 18.3628C92.9228 18.7736 93.151 19.3419 93.151 20.0677V24.9294H92.658V20.0677ZM94.1371 20.0677V24.9294H93.644V20.0677C93.644 19.205 93.3679 18.5202 92.8155 18.0135C92.2632 17.5023 91.5533 17.2466 90.686 17.2466C89.8826 17.2466 89.2115 17.5137 88.6729 18.0478C88.1342 18.5819 87.8649 19.2324 87.8649 19.9993C87.8649 20.4649 87.9448 20.8826 88.1045 21.2523C88.2689 21.6221 88.4903 21.9188 88.7687 22.1425C89.0472 22.3662 89.3576 22.5373 89.7 22.656C90.0469 22.7702 90.4121 22.8272 90.7955 22.8272C91.3159 22.8272 91.8112 22.7062 92.2814 22.4643V22.9847C91.7884 23.1901 91.2908 23.2928 90.7887 23.2928C90.3368 23.2928 89.9077 23.2244 89.5014 23.0874C89.0951 22.9459 88.7322 22.7428 88.4127 22.478C88.0931 22.2087 87.8398 21.8617 87.6526 21.4372C87.4655 21.0081 87.3719 20.5288 87.3719 19.9993C87.3719 19.1 87.6891 18.3354 88.3237 17.7054C88.9627 17.0709 89.7502 16.7536 90.686 16.7536C91.3433 16.7536 91.9322 16.8883 92.4526 17.1576C92.973 17.4224 93.3838 17.8081 93.6851 18.3148C93.9864 18.8215 94.1371 19.4058 94.1371 20.0677ZM95.1231 20.0677V24.9294H94.6301V20.0677C94.6301 19.3145 94.4566 18.6481 94.1097 18.0683C93.7673 17.484 93.2971 17.0367 92.6991 16.7262C92.1011 16.4158 91.4301 16.2606 90.686 16.2606C89.9784 16.2606 89.3325 16.4295 88.7482 16.7673C88.1639 17.1006 87.7051 17.5525 87.3719 18.1231C87.0432 18.6937 86.8789 19.3191 86.8789 19.9993C86.8789 20.5836 86.9861 21.1177 87.2007 21.6015C87.4152 22.0809 87.7028 22.4757 88.0635 22.7861C88.4286 23.0965 88.8418 23.3385 89.3028 23.512C89.7684 23.6809 90.2546 23.7653 90.7613 23.7653C91.2771 23.7653 91.7838 23.658 92.2814 23.4435V23.9433C91.761 24.1396 91.2498 24.2378 90.7476 24.2378C89.9579 24.2378 89.2321 24.0597 88.5702 23.7037C87.9083 23.3476 87.3787 22.8432 86.9816 22.1904C86.5844 21.5376 86.3859 20.8073 86.3859 19.9993C86.3859 19.4241 86.4954 18.8763 86.7145 18.3559C86.9382 17.8355 87.2395 17.3859 87.6184 17.007C87.9973 16.6281 88.4538 16.3268 88.9878 16.1031C89.5219 15.8794 90.088 15.7676 90.686 15.7676C91.5214 15.7676 92.2746 15.9456 92.9456 16.3017C93.6212 16.6578 94.153 17.1645 94.541 17.8218C94.9291 18.4792 95.1231 19.2278 95.1231 20.0677ZM96.1091 20.0677V24.9294H95.6161V20.0677C95.6161 19.1365 95.3992 18.3057 94.9656 17.5753C94.5319 16.8404 93.9408 16.2743 93.1921 15.8772C92.4435 15.4755 91.6081 15.2746 90.686 15.2746C89.8004 15.2746 88.9901 15.4869 88.2552 15.9114C87.5202 16.3359 86.9428 16.9111 86.5228 17.6369C86.1028 18.3582 85.8929 19.1456 85.8929 19.9993C85.8929 20.5607 85.9819 21.0948 86.1599 21.6015C86.3425 22.1037 86.589 22.5442 86.8994 22.9231C87.2144 23.2974 87.575 23.6215 87.9813 23.8954C88.3921 24.1693 88.8326 24.377 89.3028 24.5185C89.7776 24.66 90.2592 24.7308 90.7476 24.7308C91.2863 24.7308 91.7975 24.6281 92.2814 24.4227V24.9294C91.7747 25.1074 91.2543 25.1964 90.7202 25.1964C90.1679 25.1964 89.6292 25.1188 89.1043 24.9636C88.5839 24.8084 88.1 24.5801 87.6526 24.2789C87.2098 23.973 86.8195 23.6147 86.4817 23.2038C86.1439 22.7884 85.8792 22.3045 85.6874 21.7522C85.4957 21.1998 85.3998 20.6155 85.3998 19.9993C85.3998 19.2917 85.5322 18.6184 85.797 17.9793C86.0663 17.3357 86.4315 16.781 86.8926 16.3154C87.3582 15.8452 87.9197 15.4732 88.577 15.1993C89.2389 14.9208 89.9419 14.7816 90.686 14.7816C91.4438 14.7816 92.1559 14.9094 92.8224 15.165C93.4888 15.4207 94.064 15.7767 94.5479 16.2332C95.0318 16.6852 95.4129 17.2421 95.6914 17.904C95.9699 18.5659 96.1091 19.2871 96.1091 20.0677Z" fill="white"/>
<path d="M104.422 18.4655L104.025 18.7667C103.627 18.2737 103.116 18.0272 102.491 18.0272C101.948 18.0272 101.482 18.2212 101.094 18.6093C100.71 18.9927 100.519 19.456 100.519 19.9993C100.519 20.5425 100.71 21.0081 101.094 21.3961C101.482 21.7796 101.948 21.9713 102.491 21.9713C102.797 21.9713 103.082 21.9051 103.347 21.7727C103.616 21.6403 103.844 21.4578 104.031 21.2249L104.415 21.5468C104.187 21.8344 103.904 22.0603 103.566 22.2247C103.228 22.3844 102.87 22.4643 102.491 22.4643C101.811 22.4643 101.229 22.2247 100.745 21.7453C100.265 21.2615 100.026 20.6794 100.026 19.9993C100.026 19.3191 100.265 18.7394 100.745 18.26C101.229 17.7762 101.811 17.5342 102.491 17.5342C102.874 17.5342 103.235 17.6187 103.573 17.7876C103.91 17.9519 104.194 18.1779 104.422 18.4655ZM105.189 17.8492L104.798 18.1505C104.524 17.8036 104.184 17.5319 103.778 17.3357C103.376 17.1394 102.947 17.0412 102.491 17.0412C101.674 17.0412 100.975 17.3311 100.396 17.9108C99.8203 18.4906 99.5328 19.1867 99.5328 19.9993C99.5328 20.8118 99.8203 21.508 100.396 22.0877C100.975 22.6674 101.674 22.9573 102.491 22.9573C102.947 22.9573 103.379 22.8592 103.785 22.6629C104.191 22.462 104.531 22.1881 104.805 21.8412L105.182 22.1562C104.862 22.5579 104.467 22.8752 103.997 23.108C103.527 23.3362 103.025 23.4503 102.491 23.4503C101.865 23.4503 101.288 23.2974 100.758 22.9916C100.229 22.6811 99.8089 22.2612 99.4985 21.7316C99.1927 21.2021 99.0397 20.6247 99.0397 19.9993C99.0397 19.3739 99.1927 18.7964 99.4985 18.2669C99.8089 17.7374 100.229 17.3197 100.758 17.0138C101.288 16.7034 101.865 16.5482 102.491 16.5482C103.025 16.5482 103.527 16.6646 103.997 16.8974C104.472 17.1257 104.869 17.4429 105.189 17.8492ZM105.962 17.2329L105.579 17.5411C105.209 17.08 104.755 16.7171 104.216 16.4523C103.678 16.1876 103.103 16.0552 102.491 16.0552C101.957 16.0552 101.445 16.1602 100.957 16.3702C100.473 16.5756 100.053 16.8563 99.6971 17.2124C99.3456 17.5639 99.0649 17.9839 98.8549 18.4723C98.6494 18.9562 98.5467 19.4652 98.5467 19.9993C98.5467 20.5334 98.6494 21.0446 98.8549 21.5331C99.0649 22.017 99.3456 22.4369 99.6971 22.793C100.053 23.1445 100.473 23.4252 100.957 23.6352C101.445 23.8406 101.957 23.9433 102.491 23.9433C103.103 23.9433 103.678 23.811 104.216 23.5462C104.755 23.2814 105.209 22.9185 105.579 22.4575L105.949 22.7793C105.533 23.2951 105.024 23.7014 104.422 23.9981C103.819 24.2903 103.176 24.4363 102.491 24.4363C101.888 24.4363 101.313 24.3199 100.765 24.0871C100.217 23.8498 99.745 23.5348 99.3479 23.1422C98.9553 22.7451 98.6403 22.2726 98.4029 21.7248C98.1701 21.177 98.0537 20.6018 98.0537 19.9993C98.0537 19.3967 98.1701 18.8215 98.4029 18.2737C98.6403 17.7259 98.9553 17.2558 99.3479 16.8632C99.745 16.466 100.217 16.1511 100.765 15.9183C101.313 15.6809 101.888 15.5622 102.491 15.5622C103.18 15.5622 103.826 15.7105 104.429 16.0073C105.036 16.304 105.547 16.7125 105.962 17.2329ZM106.729 16.6167L106.332 16.9111C105.871 16.3405 105.305 15.8909 104.634 15.5622C103.968 15.2335 103.253 15.0692 102.491 15.0692C101.824 15.0692 101.185 15.1993 100.574 15.4595C99.9664 15.7197 99.4415 16.0712 98.9987 16.514C98.5604 16.9522 98.2112 17.4772 97.951 18.0889C97.6908 18.696 97.5607 19.3328 97.5607 19.9993C97.5607 20.6657 97.6908 21.3048 97.951 21.9165C98.2112 22.5237 98.5604 23.0486 98.9987 23.4914C99.4415 23.9296 99.9664 24.2789 100.574 24.5391C101.185 24.7993 101.824 24.9294 102.491 24.9294C103.253 24.9294 103.968 24.765 104.634 24.4363C105.305 24.1077 105.871 23.658 106.332 23.0874L106.722 23.3887C106.216 24.0187 105.593 24.5162 104.853 24.8814C104.118 25.242 103.331 25.4224 102.491 25.4224C101.756 25.4224 101.053 25.2786 100.382 24.991C99.7154 24.7034 99.1402 24.3177 98.6563 23.8338C98.1724 23.3499 97.7867 22.7747 97.4991 22.1082C97.2115 21.4372 97.0677 20.7342 97.0677 19.9993C97.0677 19.2643 97.2115 18.5636 97.4991 17.8971C97.7867 17.2261 98.1724 16.6486 98.6563 16.1648C99.1402 15.6809 99.7154 15.2951 100.382 15.0076C101.053 14.72 101.756 14.5762 102.491 14.5762C103.331 14.5762 104.12 14.7588 104.86 15.124C105.6 15.4846 106.223 15.9822 106.729 16.6167Z" fill="white"/>
<path d="M109.413 17.8013H109.906V24.9294H109.413V17.8013ZM107.441 15.5622V15.0692H114.837V15.5622H107.441ZM107.441 16.5482V16.0552H114.837V16.5482H107.441ZM107.441 17.5342V17.0412H114.837V17.5342H107.441ZM112.372 17.8013H112.865V24.9294H112.372V17.8013ZM111.386 17.8013H111.879V24.9294H111.386V17.8013ZM110.399 17.8013H110.892V24.9294H110.399V17.8013Z" fill="white"/>
</svg>
